<?xml version="1.0" encoding="utf-8"?>
<!-- Generator: Adobe Illustrator 25.4.1, SVG Export Plug-In . SVG Version: 6.00 Build 0)  -->
<svg version="1.1" id="Layer_1" xmlns="http://www.w3.org/2000/svg" xmlns:xlink="http://www.w3.org/1999/xlink" x="0px" y="0px"
	 viewBox="0 0 687 167" style="enable-background:new 0 0 687 167;" xml:space="preserve">
<style type="text/css">
	.st0{fill:#00853F;}
	.st1{fill:#FFFFFF;}
</style>
<rect x="1" y="-1" class="st0" width="686" height="168"/>
<g>
	<path class="st1" d="M617.11,80.59h23.26l5.55-26.78h-23.28l6.15-29.65h-34.13l-17.74,85.77c-1.01,4.85-1.45,8.84-1.31,12.2
		c0.16,4.14,1.74,7.94,4.74,11.32c2.69,3.03,5.67,5.18,8.8,6.41c2.99,1.17,6.66,1.75,11.15,1.75h26.54l5.33-25.7h-13.58
		c-3.35,0-5.87-0.6-7.12-1.69c-0.43-0.37-1.15-0.99-0.66-3.27L617.11,80.59z"/>
	<polygon class="st1" points="49.25,23.42 43.37,51.81 80.31,51.81 86.19,23.42 	"/>
	<path class="st1" d="M161.66,99.46l22.79,41.42h42.6l-26.33-46.3c5.18-2.9,9.73-6.46,12.05-8.47c4.76-4.1,10.98-13.7,12.71-22.06
		c2.32-11.2,0.28-20.85-6.09-28.74c-7.1-8.76-20.75-11.88-30.26-11.88h-86.99l-5.88,28.39h37.61h4.27l31.13-0.08
		c5.98,0,10.41,1.03,13.15,3.04c1.46,1.08,2.71,2.56,1.97,6.13c-0.66,3.18-3.12,5.8-7.5,8c-4.2,2.11-8.48,3.12-13.07,3.12h-34
		l2.69-11.53H94.41l-17,80.38h6.43h27.31h4.26l8.57-41.42H161.66z"/>
	<polygon class="st1" points="41.85,60.5 24.88,140.87 62.05,140.87 78.81,60.5 	"/>
	<path class="st1" d="M326.2,64.27c-8.88-7.66-21.85-11.57-38.56-11.57c-14.82,0-28.34,3.49-40.19,10.34
		c-13.72,7.84-22.11,18.72-24.93,32.34c-3.47,16.72,0.27,29.55,11.08,38.15c8.79,6.93,21.84,10.46,38.8,10.46
		c15.54,0,29-3.41,40.01-10.09c12.24-7.47,19.89-18.08,22.66-31.58l0.95-4.5C338.96,83.72,335.64,72.44,326.2,64.27 M297.14,95.57
		c-1.48,7.13-4.42,12.73-8.7,16.64c-4.2,3.8-9.61,5.65-16.58,5.65c-5.79,0-9.95-1.68-12.74-5.14c-2.8-3.47-3.52-8.15-2.26-14.3
		c1.15-5.51,3.93-9.95,8.52-13.52c4.67-3.64,9.86-5.39,15.89-5.39c6.23,0,10.61,1.52,13.38,4.66
		C297.31,87.2,298.13,90.84,297.14,95.57"/>
	<path class="st1" d="M563.51,64.27c-8.87-7.66-21.84-11.57-38.55-11.57c-14.83,0-28.34,3.49-40.2,10.34
		c-13.71,7.84-22.11,18.72-24.92,32.34c-3.47,16.72,0.27,29.55,11.08,38.15c8.8,6.93,21.85,10.46,38.81,10.46
		c15.55,0,29-3.41,40.01-10.09c12.27-7.47,19.89-18.08,22.68-31.58l0.93-4.51C576.26,83.72,572.96,72.44,563.51,64.27 M536.77,95.57
		c-1.51,7.24-4.35,12.67-8.69,16.64c-4.2,3.8-9.62,5.65-16.59,5.65c-5.78,0-9.95-1.68-12.74-5.14c-2.79-3.47-3.53-8.15-2.25-14.3
		c1.14-5.51,3.92-9.95,8.51-13.52c4.68-3.64,9.86-5.39,15.89-5.39c6.23,0,10.61,1.52,13.38,4.67
		C536.94,87.2,537.75,90.84,536.77,95.57"/>
	<path class="st1" d="M443.95,64.22c-9.19-7.63-22.15-11.52-38.49-11.52c-6.28,0-12.68,0.77-18.49,2.03l7.4-31.29h-36.24
		L344.7,83.82c-0.43,2.06-4.26,20.34-4.17,27.64c0.13,8.63,4.08,16.67,10.9,22.08c8.78,6.93,21.84,10.46,38.8,10.46
		c15.54,0,28.99-3.41,39.99-10.09c12.26-7.46,19.89-18.08,22.67-31.58l0,0.17C453.13,101.45,458.88,76.6,443.95,64.22 M417.28,95.57
		c-1.47,7.15-4.42,12.73-8.71,16.64c-4.19,3.8-9.59,5.65-16.56,5.65c-5.8,0-9.96-1.68-12.73-5.14c-0.64-0.77-0.69-1.93-0.66-4.63
		c0.06-4.34,2.62-15.47,3.82-18.33c1.05-2.44,1.61-3.7,3.11-4.86c4.65-3.64,9.84-5.39,15.85-5.39c6.24,0,10.64,1.52,13.41,4.66
		C417.46,87.2,418.24,90.84,417.28,95.57"/>
	<path class="st1" d="M663.33,33.68c0,2.67-0.95,4.97-2.86,6.88c-1.9,1.9-4.19,2.86-6.87,2.86c-2.68,0-4.96-0.96-6.87-2.86
		c-1.91-1.9-2.86-4.2-2.86-6.88c0-2.66,0.95-4.94,2.86-6.86c1.91-1.91,4.2-2.87,6.87-2.87c2.67,0,4.96,0.96,6.87,2.87
		C662.38,28.74,663.33,31.02,663.33,33.68 M661.98,33.68c0-2.3-0.83-4.28-2.46-5.9c-1.64-1.64-3.61-2.46-5.92-2.46
		c-2.3,0-4.26,0.83-5.91,2.47c-1.63,1.63-2.46,3.6-2.46,5.89c0,2.32,0.81,4.28,2.45,5.92c1.63,1.63,3.6,2.45,5.92,2.45
		c2.3,0,4.26-0.82,5.91-2.46C661.15,37.95,661.98,35.98,661.98,33.68 M658.22,39.38h-1.85l-2.18-4.88h-3.15v4.88h-1.68V28.04h4.8
		c1.29,0,2.27,0.33,2.91,0.99c0.63,0.66,0.96,1.41,0.96,2.21c0,0.6-0.18,1.17-0.52,1.72c-0.35,0.56-0.9,0.95-1.64,1.19L658.22,39.38
		z M651.05,33.14h2.94c0.78,0,1.34-0.19,1.71-0.57c0.37-0.39,0.56-0.85,0.56-1.42c0-0.58-0.21-1.02-0.59-1.31
		c-0.4-0.3-0.9-0.46-1.5-0.46h-3.12V33.14z"/>
</g>
</svg>
